<?xml version="1.0" encoding="UTF-8"?>
<svg width="16px" height="16px" viewBox="0 0 16 16" version="1.1" xmlns="http://www.w3.org/2000/svg" xmlns:xlink="http://www.w3.org/1999/xlink">
    <title>16/下</title>
    <defs>
        <polygon id="path-1" points="0 0 16 0 16 16.0000305 0 16.0000305"></polygon>
    </defs>
    <g id="页面-1" stroke="none" stroke-width="1" fill="none" fill-rule="evenodd">
        <g id="画板备份-2" transform="translate(-65, -52)">
            <g id="16/下" transform="translate(65, 52)">
                <mask id="mask-2" fill="white">
                    <use xlink:href="#path-1"></use>
                </mask>
                <use id="矩形" fill-opacity="0" fill="#FFFFFF" fill-rule="nonzero" xlink:href="#path-1"></use>
                <path d="M11.7812896,6.85354197 C11.7812896,6.85354197 8.3535552,10.2805438 8.3535552,10.2805438 C8.15829515,10.4758062 7.8417933,10.4758062 7.64652371,10.2805438 C7.64652371,10.2805438 4.2197659,6.85354197 4.2197659,6.85354197 C4.02450585,6.65828192 4.02450585,6.34171969 4.2197659,6.14644969 C4.41502583,5.95118968 4.7315371,5.95118968 4.92679715,6.14644969 C4.92679715,6.14644969 8.00003934,9.21999693 8.00003934,9.21999693 C8.00003934,9.21999693 11.0732818,6.14644969 11.0732818,6.14644969 C11.2468476,5.97288968 11.5170856,5.95358836 11.7119536,6.08858836 C11.7119536,6.08858836 11.7812896,6.14644969 11.7812896,6.14644969 C11.9765525,6.34171969 11.9765525,6.65828192 11.7812896,6.85354197 C11.7812896,6.85354197 11.7812896,6.85354197 11.7812896,6.85354197 Z" id="路径" fill-opacity="0.85" fill="#FFFFFF" fill-rule="nonzero" mask="url(#mask-2)"></path>
            </g>
        </g>
    </g>
</svg>