<?xml version="1.0" encoding="UTF-8"?>
<svg width="10px" height="10px" viewBox="0 0 10 10" version="1.1" xmlns="http://www.w3.org/2000/svg" xmlns:xlink="http://www.w3.org/1999/xlink">
    <title>下拉-收起</title>
    <defs>
        <rect id="path-1" x="0" y="0" width="10" height="10"></rect>
    </defs>
    <g id="下拉-收起" stroke="none" stroke-width="1" fill="none" fill-rule="evenodd">
        <g id="编组-3">
            <mask id="mask-2" fill="white">
                <use xlink:href="#path-1"></use>
            </mask>
            <g id="矩形"></g>
            <path d="M8.77506898,1.71089008 L5.00019221,6.97186759 L1.22531544,1.71035727 C1.20565271,1.6829339 1.17434062,1.66666667 1.14101395,1.66666667 L0.104693822,1.66666667 C0.0651828411,1.66666667 0.0290178832,1.6892667 0.0112154566,1.72521529 C-0.00658696994,1.76116388 -0.00298604885,1.80426942 0.0205230361,1.83663352 L4.49372979,8.07132344 C4.61212253,8.23569972 4.80011614,8.33295508 5.00019221,8.33333333 C5.20026828,8.33295508 5.38826189,8.23569972 5.50665463,8.07132344 L9.97986138,1.83663352 C10.0030633,1.8042744 10.006488,1.76138422 9.98872497,1.72562766 C9.97096196,1.68987111 9.93501555,1.6672958 9.8956906,1.66719956 L8.85937047,1.66719956 C8.8260438,1.66723875 8.79473171,1.68346671 8.77506898,1.71089008 Z" id="路径" fill-opacity="0.45" fill="#000000" fill-rule="nonzero" mask="url(#mask-2)"></path>
        </g>
    </g>
</svg>