<?xml version="1.0" encoding="UTF-8"?>
<svg width="24px" height="24px" viewBox="0 0 24 24" version="1.1" xmlns="http://www.w3.org/2000/svg" xmlns:xlink="http://www.w3.org/1999/xlink">
    <title>编组 3备份 6</title>
    <g id="页面-1" stroke="none" stroke-width="1" fill="none" fill-rule="evenodd">
        <g id="编组-3备份-6" fill-rule="nonzero">
            <g id="question-circle备份">
                <rect id="矩形" fill="#000000" opacity="0" x="0" y="0" width="24" height="24"></rect>
                <g id="skin" transform="translate(0.000000, 1.000000)" fill="#FFFFFF" fill-opacity="0.85">
                    <path d="M7.00119228,0 C7.84142264,0.00316556152 8.60881042,0.469726224 8.98736691,1.20756541 C9.61927163,2.13574351 10.754643,2.71034231 11.9638597,2.71034231 C13.1570506,2.71034231 14.219649,2.2022743 14.8486655,1.34228807 L14.9614511,1.17695473 C15.4295775,0.429068355 16.1722501,0 16.9995811,0 L17.9202737,0 C18.5836126,0.00386952296 19.2144689,0.282995734 19.6574842,0.768639381 L23.3049141,4.66631292 C23.755442,5.12608956 24.0049135,5.74118051 24,6.37973281 C24.0009185,7.02107405 23.756058,7.63922236 23.3141448,8.11079274 L21.1760599,10.3936232 C20.7372078,10.8618628 20.154885,11.1199783 19.5359032,11.1199783 L19.4710248,11.1199783 L19.4710248,20.1215937 C19.4710248,21.157428 18.648441,22 17.6375517,22 L6.3632217,22 C5.3523324,22 4.52974859,21.157428 4.52974859,20.1215937 L4.52974859,11.1199783 L4.46487023,11.1199783 C3.8638223,11.1199783 3.25064264,10.8488922 2.82471354,10.3936232 L0.69506806,8.11961277 C0.244836576,7.66017313 -0.00461387304,7.04559966 0,6.40748995 C-0.0010027317,5.7660592 0.243862309,5.14780676 0.685837399,4.6761706 L4.36544282,0.783685309 C4.80587724,0.263822562 5.42380409,0 6.20366313,0 L7.00119228,0 Z M17.9208011,1.86699211 L16.9993174,1.86699211 C16.9465707,1.86699211 16.797135,1.86699211 16.6375116,2.07068469 L16.5773443,2.15701534 C16.0972147,2.90733072 15.4306644,3.5165457 14.6404878,3.92958128 C13.8363653,4.35398021 12.9106618,4.57811266 11.9638597,4.57811266 C11.0281248,4.5790594 10.1069104,4.35054498 9.28353928,3.91323829 C8.50589689,3.50185827 7.84544212,2.90537865 7.36250675,2.17828717 C7.33606648,2.13746676 7.31483075,2.09924464 7.29630972,2.05973564 C7.2426629,1.94564232 7.12764164,1.87155979 6.99987362,1.868808 L6.20313566,1.868808 C5.93096301,1.868808 5.86028252,1.9370335 5.82546974,1.97853951 L5.79909642,2.0135602 L5.7679759,2.04468971 L2.08204089,5.94366031 C1.84705462,6.19606872 1.83782396,6.59841758 2.0622609,6.82306885 L4.22197196,9.12768993 C4.30161939,9.21251783 4.41344226,9.25194854 4.46539769,9.25194854 C4.51735313,9.25194854 4.62706614,9.2138149 4.70803223,9.12898699 C4.8922977,8.93637209 5.14911499,8.82695782 5.41800196,8.82651196 C5.97760063,8.8286566 6.42988619,9.27585323 6.429155,9.82628792 L6.429155,20.1304138 L17.5732008,20.1304138 L17.5732008,9.82628792 C17.5724696,9.27585323 18.0247552,8.8286566 18.5843538,8.82651196 C18.808344,8.82675856 19.0239824,8.90272835 19.1962117,9.0394929 L19.2940598,9.12872758 C19.3752897,9.2138149 19.4842115,9.25194854 19.5369581,9.25194854 C19.5691336,9.25194854 19.6638138,9.25194854 19.7801201,9.12794934 L21.9163589,6.84382185 C22.1537188,6.59167286 22.1632132,6.18828634 21.9374576,5.96259743 L18.2504676,2.02341788 C18.1682061,1.92752062 18.0483098,1.87063019 17.9208011,1.86699211 Z M12.158231,9.20914547 C12.2988887,9.20914547 12.3692176,9.27832215 12.3692176,9.41667551 L12.3692176,13.4116288 C12.3692176,13.5499821 12.2988887,13.6191588 12.158231,13.6191588 L8.99343277,13.6191588 C8.85277507,13.6191588 8.78244622,13.5499821 8.78244622,13.4116288 L8.78244622,9.41667551 C8.78244622,9.27832215 8.85277507,9.20914547 8.99343277,9.20914547 L12.158231,9.20914547 Z" id="形状"></path>
                </g>
            </g>
        </g>
    </g>
</svg>