<?xml version="1.0" encoding="UTF-8"?>
<svg width="20px" height="20px" viewBox="0 0 20 20" version="1.1" xmlns="http://www.w3.org/2000/svg" xmlns:xlink="http://www.w3.org/1999/xlink">
    <title>主题-暗色</title>
    <g id="主题-暗色" stroke="none" stroke-width="1" fill="none" fill-rule="evenodd">
        <g id="编组-3备份-5" fill-rule="nonzero">
            <g id="question-circle备份">
                <rect id="矩形" fill="#000000" opacity="0" x="5.24011903e-05" y="0" width="19.9998882" height="20"></rect>
                <g id="skin" transform="translate(0.000000, 0.833333)" fill="#FFFFFF" fill-opacity="0.85">
                    <path d="M5.8343467,0 C6.53453475,0.00263796793 7.174021,0.39143852 7.48948298,1.00630451 C8.0160673,1.77978626 8.96220482,2.25861859 9.96987974,2.25861859 C10.9642,2.25861859 11.8496937,1.83522859 12.3738712,1.11857339 L12.4678586,0.98079561 C12.8579618,0.357556963 13.4768522,0 14.1662908,0 L14.9335303,0 C15.4863097,0.00322460247 16.0120204,0.235829779 16.3811977,0.640532818 L19.4207057,3.8885941 C19.7961434,4.2717413 20.0040352,4.78431709 19.9999406,5.316444 C20.0007061,5.85089505 19.7966568,6.36601863 19.4283978,6.75899395 L17.6466703,8.66135264 C17.2809624,9.05155235 16.795696,9.26664859 16.2798807,9.26664859 L16.2258157,9.26664859 L16.2258157,16.7679948 C16.2258157,17.63119 15.5403331,18.3333333 14.69793,18.3333333 L5.30270752,18.3333333 C4.46030448,18.3333333 3.7748218,17.63119 3.7748218,16.7679948 L3.7748218,9.26664859 L3.7207568,9.26664859 C3.21988632,9.26664859 2.70890613,9.04074349 2.3539672,8.66135264 L0.579272548,6.76634397 C0.204081741,6.38347761 -0.00379247152,5.87133305 5.24011903e-05,5.33957496 C-0.000783203889,4.80504933 0.203269856,4.28983897 0.571580373,3.89680883 L3.63790109,0.653071091 C4.00492772,0.219852135 4.51986389,0 5.16974279,0 L5.8343467,0 Z M14.9339699,1.55582676 L14.1660711,1.55582676 C14.1221158,1.55582676 13.9975867,1.55582676 13.864568,1.72557058 L13.8144288,1.79751278 C13.414323,2.4227756 12.8588675,2.93045475 12.2003907,3.27465107 C11.5302924,3.62831684 10.7588771,3.81509388 9.96987974,3.81509388 C9.19010509,3.81588283 8.42243071,3.62545415 7.7362919,3.26103191 C7.0882602,2.91821522 6.5378843,2.42114888 6.13544041,1.81523931 C6.11340697,1.7812223 6.09571064,1.74937053 6.08027652,1.71644636 C6.03557109,1.6213686 5.93972058,1.55963316 5.83324782,1.55734 L5.16930323,1.55734 C4.94249396,1.55734 4.88359388,1.61419458 4.85458339,1.64878292 L4.83260575,1.67796683 L4.80667213,1.70390809 L1.73507678,4.95305026 C1.53925598,5.1633906 1.53156381,5.49868132 1.71859355,5.68589071 L3.51834271,7.60640828 C3.58471519,7.6770982 3.6779004,7.70995712 3.72119635,7.70995712 C3.76449231,7.70995712 3.8559193,7.67817908 3.92339067,7.60748916 C4.07694437,7.44697674 4.29095758,7.35579819 4.51502881,7.35542664 C4.98135843,7.35721384 5.35826096,7.7298777 5.35765163,8.18857327 L5.35765163,16.7753448 L14.6443046,16.7753448 L14.6443046,8.18857327 C14.6436952,7.7298777 15.0205978,7.35721384 15.4869274,7.35542664 C15.6735849,7.35563214 15.8532825,7.41894029 15.9968061,7.53291075 L16.0783458,7.60727298 C16.1460369,7.67817908 16.2368046,7.70995712 16.2807598,7.70995712 C16.3075726,7.70995712 16.3864723,7.70995712 16.4833937,7.60662445 L18.2635828,5.70318488 C18.4613816,5.49306071 18.4692935,5.15690529 18.2811649,4.96883119 L15.2086904,1.68618157 C15.1401395,1.60626718 15.0402265,1.55885849 14.9339699,1.55582676 Z M10.131855,7.67428789 C10.2490691,7.67428789 10.3076761,7.73193513 10.3076761,7.84722959 L10.3076761,11.1763573 C10.3076761,11.2916518 10.2490691,11.349299 10.131855,11.349299 L7.49453783,11.349299 C7.37732374,11.349299 7.31871669,11.2916518 7.31871669,11.1763573 L7.31871669,7.84722959 C7.31871669,7.73193513 7.37732374,7.67428789 7.49453783,7.67428789 L10.131855,7.67428789 Z" id="形状"></path>
                </g>
            </g>
        </g>
    </g>
</svg>