<?xml version="1.0" encoding="UTF-8"?>
<svg width="14px" height="14px" viewBox="0 0 14 14" version="1.1" xmlns="http://www.w3.org/2000/svg" xmlns:xlink="http://www.w3.org/1999/xlink">
    <title>皮肤-暗色备份</title>
    <defs>
        <path d="M0,6 L0,0 L12,0 L12,12 L0,12 L0,6 Z" id="path-1"></path>
    </defs>
    <g id="皮肤-暗色备份" stroke="none" stroke-width="1" fill="none" fill-rule="evenodd">
        <g id="编组-8" transform="translate(1.000000, 1.000000)">
            <mask id="mask-2" fill="white">
                <use xlink:href="#path-1"></use>
            </mask>
            <g id="Rectangle-77-Copy-6"></g>
            <path d="M6.7076968,1.03913569 C7.74160698,1.03913569 8.71254957,1.31415423 9.54687687,1.79251876 C9.54997027,1.79429237 9.55313755,1.79611702 9.55637871,1.79799271 L9.55641454,1.7979308 C9.59492564,1.82021752 9.6080781,1.86950389 9.58579138,1.90801499 C9.57138908,1.93290194 9.54481476,1.9482266 9.51606086,1.9482266 C9.51606086,1.9482266 9.51606086,1.9482266 9.51606086,1.9482266 C6.94152976,1.9482266 4.83540444,3.99458766 4.83540444,6.49372936 C4.83540444,8.99383545 6.94152976,11.0391357 9.51606086,11.0391357 C9.52696627,11.0391357 9.53873094,11.039054 9.55135489,11.0388905 L9.55135574,11.0389563 C9.59063668,11.0384477 9.62289248,11.0698789 9.62340108,11.1091599 C9.62373269,11.1347715 9.61026866,11.1585836 9.58815116,11.1715019 C9.58815116,11.1715019 9.58815116,11.1715019 9.58815116,11.1715019 C8.74460552,11.6641957 7.75868355,11.9482266 6.7076968,11.9482266 C3.61825948,11.9482266 1.09090909,9.49386631 1.09090909,6.493739 C1.09090909,3.49476896 3.61825948,1.03913569 6.7076968,1.03913569 Z" id="路径" fill-opacity="0.85" fill="#FFFFFF" fill-rule="nonzero" mask="url(#mask-2)" transform="translate(5.454545, 6.493681) rotate(-45.000000) translate(-5.454545, -6.493681) "></path>
        </g>
    </g>
</svg>