<?xml version="1.0" encoding="UTF-8"?>
<svg width="14px" height="14px" viewBox="0 0 14 14" version="1.1" xmlns="http://www.w3.org/2000/svg" xmlns:xlink="http://www.w3.org/1999/xlink">
    <title>皮肤-亮色备份</title>
    <g id="皮肤-亮色备份" stroke="none" stroke-width="1" fill="none" fill-rule="evenodd" fill-opacity="0.25">
        <g id="ai250" transform="translate(0.000000, 0.000000)" fill="#FFFFFF" fill-rule="nonzero">
            <path d="M7.56264299,12.038918 C7.67309994,12.038918 7.76264299,12.1284611 7.76264299,12.238918 L7.76264299,13.8 C7.76264299,13.9104569 7.67309994,14 7.56264299,14 L6.43735701,14 C6.32690006,14 6.23735701,13.9104569 6.23735701,13.8 L6.23735701,12.238918 C6.23735701,12.1284611 6.32690006,12.038918 6.43735701,12.038918 Z M11.2437445,10.1652044 L12.3475961,11.2690561 C12.425701,11.3471609 12.425701,11.4737939 12.3475961,11.5518988 L11.5518988,12.3475961 C11.4737939,12.425701 11.3471609,12.425701 11.2690561,12.3475961 L10.1652044,11.2437445 C10.0870996,11.1656396 10.0870996,11.0390066 10.1652044,10.9609018 L10.9609018,10.1652044 C11.0390066,10.0870996 11.1656396,10.0870996 11.2437445,10.1652044 Z M3.03909822,10.1652044 L3.83479557,10.9609018 C3.91290043,11.0390066 3.91290043,11.1656396 3.83479557,11.2437445 L2.73094392,12.3475961 C2.65283906,12.425701 2.52620606,12.425701 2.4481012,12.3475961 L1.65240386,11.5518988 C1.574299,11.4737939 1.574299,11.3471609 1.65240386,11.2690561 L2.75625551,10.1652044 C2.83436037,10.0870996 2.96099336,10.0870996 3.03909822,10.1652044 Z M7.17056024,2.64204005 C9.54575261,2.64204005 11.4886962,4.60399115 11.4886962,7.00004623 C11.4886962,9.39702591 9.54575261,11.3579599 7.17056024,11.3579599 C4.79539076,11.3579599 2.85235555,9.39702591 2.85235555,7.00004623 C2.85235555,4.60399115 4.79539076,2.64204005 7.17056024,2.64204005 Z M13.8,6.23735701 C13.9104569,6.23735701 14,6.32690006 14,6.43735701 L14,7.56264299 C14,7.67309994 13.9104569,7.76264299 13.8,7.76264299 L12.238918,7.76264299 C12.1284611,7.76264299 12.038918,7.67309994 12.038918,7.56264299 L12.038918,6.43735701 C12.038918,6.32690006 12.1284611,6.23735701 12.238918,6.23735701 L13.8,6.23735701 Z M1.76108197,6.23735701 C1.87153893,6.23735701 1.96108198,6.32690006 1.96108198,6.43735701 L1.96108198,7.56264299 C1.96108198,7.67309994 1.87153893,7.76264299 1.76108197,7.76264299 L0.200000003,7.76264299 C0.0895430514,7.76264299 3.84182115e-18,7.67309994 -3.67394045e-17,7.56264299 L-2.43451085e-16,6.43735701 C-2.84032311e-16,6.32690006 0.0895430514,6.23735701 0.200000003,6.23735701 Z M11.5518988,1.65240386 L12.3475961,2.4481012 C12.425701,2.52620606 12.425701,2.65283906 12.3475961,2.73094392 L11.2437445,3.83479557 C11.1656396,3.91290043 11.0390066,3.91290043 10.9609018,3.83479557 L10.1652044,3.03909822 C10.0870996,2.96099336 10.0870996,2.83436037 10.1652044,2.75625551 L11.2690561,1.65240386 C11.3471609,1.574299 11.4737939,1.574299 11.5518988,1.65240386 Z M2.73094392,1.65240386 L3.83479557,2.75625551 C3.91290043,2.83436037 3.91290043,2.96099336 3.83479557,3.03909822 L3.03909822,3.83479557 C2.96099336,3.91290043 2.83436037,3.91290043 2.75625551,3.83479557 L1.65240386,2.73094392 C1.574299,2.65283906 1.574299,2.52620606 1.65240386,2.4481012 L2.4481012,1.65240386 C2.52620606,1.574299 2.65283906,1.574299 2.73094392,1.65240386 Z M7.56264299,0 C7.67309994,3.52205384e-17 7.76264299,0.0895430514 7.76264299,0.200000003 L7.76264299,1.76108197 C7.76264299,1.87153893 7.67309994,1.96108198 7.56264299,1.96108198 L6.43735701,1.96108198 C6.32690006,1.96108198 6.23735701,1.87153893 6.23735701,1.76108197 L6.23735701,0.200000003 C6.23735701,0.0895430514 6.32690006,2.02906128e-17 6.43735701,0 L7.56264299,0 Z" id="形状"></path>
        </g>
    </g>
</svg>