<?xml version="1.0" encoding="UTF-8"?>
<svg width="11.9827881px" height="11.4595599px" viewBox="0 0 11.9827881 11.4595599" version="1.1" xmlns="http://www.w3.org/2000/svg" xmlns:xlink="http://www.w3.org/1999/xlink">
    <title>16/帮助文档</title>
    <g id="页面-1" stroke="none" stroke-width="1" fill="none" fill-rule="evenodd">
        <g id="画板备份" transform="translate(-276.0172, -54)">
            <g id="16/帮助文档" transform="translate(274, 52)">
                <rect id="矩形" fill-opacity="0" fill="#FFFFFF" x="0" y="0" width="16" height="16"></rect>
                <path d="M13,2 C13.5522847,2 14,2.44771525 14,3 L14,11 C14,11.5522847 13.5522847,12 13,12 L9.68333333,12 L8.37022006,13.3131133 C8.17495791,13.5083754 7.85837542,13.5083754 7.66311328,13.3131133 L6.35,12 L3.01721191,12 C2.46492716,12 2.01721191,11.5522847 2.01721191,11 L2.01721191,3 C2.01721191,2.44771525 2.46492716,2 3.01721191,2 L13,2 Z M13,3 L3.01721191,3 L3.01721191,11 L6.76421356,11 L8.01621191,12.252 L9.26911977,11 L13,11 L13,3 Z M8.05,9 C8.33764583,9 8.57083333,9.22386 8.57083333,9.5 C8.57083333,9.77614 8.33764583,10 8.05,10 C7.76235417,10 7.52916667,9.77614 7.52916667,9.5 C7.52916667,9.22386 7.76235417,9 8.05,9 Z M8.05,4.5 C9.01203325,4.5 9.8,5.25644808 9.8,6.2 C9.8,6.75436465 9.43922465,7.21152623 8.79800347,7.5855993 C8.64463147,7.67393245 8.55006418,7.83783235 8.55,8.015625 L8.55,8.2 C8.55,8.47614237 8.32614237,8.7 8.05,8.7 C7.77385763,8.7 7.55,8.47614237 7.55,8.2 L7.55000003,8.01544459 C7.55019312,7.48033203 7.83541603,6.9859961 8.29650793,6.72044356 C8.65974983,6.50853184 8.8,6.33081186 8.8,6.2 C8.8,5.81807192 8.46867509,5.5 8.05,5.5 C7.63132491,5.5 7.3,5.81807192 7.3,6.2 C7.3,6.47614237 7.07614237,6.7 6.8,6.7 C6.52385763,6.7 6.3,6.47614237 6.3,6.2 C6.3,5.25644808 7.08796675,4.5 8.05,4.5 Z" id="形状" fill-opacity="0.85" fill="#000000" fill-rule="nonzero"></path>
            </g>
        </g>
    </g>
</svg>