<?xml version="1.0" encoding="UTF-8"?>
<svg width="20px" height="20px" viewBox="0 0 20 20" version="1.1" xmlns="http://www.w3.org/2000/svg" xmlns:xlink="http://www.w3.org/1999/xlink">
    <title>问答-亮色</title>
    <g id="问答-亮色" stroke="none" stroke-width="1" fill="none" fill-rule="evenodd">
        <g id="question-circle备份-2" fill="#000000" fill-rule="nonzero">
            <rect id="矩形" opacity="0" x="0" y="0" width="20" height="20"></rect>
            <g id="feedback" transform="translate(0.000000, 1.666667)" fill-opacity="0.85">
                <path d="M18.4821429,0 L1.51785714,0 C0.67956779,0 0,0.644879998 0,1.44037979 L0,13.1189257 C0,13.9144255 0.67956779,14.5593055 1.51785714,14.5593055 L7.2629417,14.5593055 C7.32473392,14.5593055 7.38433682,14.5821898 7.43025137,14.6235436 L9.77692044,16.737112 C9.90371653,16.8513131 10.0962835,16.8513131 10.2230796,16.737112 L12.5697486,14.6235436 C12.6156632,14.5821898 12.6752661,14.5593055 12.7370583,14.5593055 L18.4821429,14.5593055 L18.4821429,14.5593055 C19.3204322,14.5593055 20,13.9144255 20,13.1189257 L20,1.44037979 C20,0.644879998 19.3204322,0 18.4821429,0 Z M18.3928571,13.0341974 L12.0131846,13.0341974 C11.9296735,13.0341974 11.8492045,13.0655444 11.7876999,13.1220358 L10,14.7640207 L10,14.7640207 L8.21230013,13.1220358 C8.15079547,13.0655444 8.07032653,13.0341974 7.98681543,13.0341974 L1.60714286,13.0341974 L1.60714286,13.0341974 L1.60714286,1.52510801 L18.3928571,1.52510801 L18.3928571,13.0341974 Z" id="形状"></path>
                <g id="编组-24" transform="translate(7.200000, 3.218743)">
                    <path d="M4.85150952,0.694137334 C4.3156285,0.245591587 3.60826555,0 2.85803212,0 C2.10779869,0 1.40043574,0.247297084 0.864554716,0.694137334 C0.307238453,1.15973805 0,1.7856555 0,2.45591587 L0,2.58553366 C0,2.66088726 0.0639792283,2.72197343 0.142901606,2.72197343 L1.00031124,2.72197343 C1.07923362,2.72197343 1.14321285,2.66088726 1.14321285,2.58553366 L1.14321285,2.45591587 C1.14321285,1.70379164 1.91309525,1.09151817 2.85803212,1.09151817 C3.80296899,1.09151817 4.57285139,1.70379164 4.57285139,2.45591587 C4.57285139,2.94843908 4.23400689,3.40272783 3.69790649,3.643996 L3.57075388,3.69581229 C3.19384757,3.83320981 2.86938126,4.07640729 2.64010717,4.39336062 C2.40713881,4.71951865 2.2831996,5.1054448 2.28463943,5.50022826 L2.28463943,5.86691014 C2.28463943,5.94226375 2.34861865,6.00334991 2.42754103,6.00334991 L3.28495067,6.00334991 C3.36387305,6.00334991 3.42785227,5.94226375 3.42785227,5.86691014 L3.42785227,5.47976229 C3.42979228,5.14094259 3.64878157,4.83780048 3.97980973,4.71569958 C5.03370907,4.32855173 5.714301,3.44169322 5.714301,2.45591587 C5.71592743,1.83721399 5.45426474,1.25629543 4.97565489,0.804376725 L4.85150952,0.694137334 Z M2.14352409,7.45171055 C2.14352409,7.82847858 2.46342023,8.13390941 2.85803212,8.13390941 C3.25264401,8.13390941 3.57254015,7.82847858 3.57254015,7.45171055 C3.57254015,7.07494253 3.25264401,6.7695117 2.85803212,6.7695117 C2.46342023,6.7695117 2.14352409,7.07494253 2.14352409,7.45171055 Z" id="形状"></path>
                </g>
            </g>
        </g>
    </g>
</svg>