<?xml version="1.0" encoding="UTF-8"?>
<svg width="13.7124202px" height="12px" viewBox="0 0 13.7124202 12" version="1.1" xmlns="http://www.w3.org/2000/svg" xmlns:xlink="http://www.w3.org/1999/xlink">
    <title>16/皮肤</title>
    <g id="页面-1" stroke="none" stroke-width="1" fill="none" fill-rule="evenodd">
        <g id="画板备份" transform="translate(-199.1655, -53.99)" fill-rule="nonzero">
            <g id="16/皮肤" transform="translate(198, 52)">
                <rect id="矩形" fill-opacity="0" fill="#FFFFFF" x="0" y="0" width="16" height="16"></rect>
                <path d="M12.46,3 L13.7,4.88 L12.31,6.2 C12.11,6.39 12,6.65 12,6.93 L12,13 L4,13 L4,6.96 C4,6.69 3.89,6.44 3.7,6.25 L2.29,4.85 L3.53,3 L4.27,3 C5.09,4.23 6.49,5 8,5 C9.51,5 10.91,4.23 11.73,3 L12.46,3 M13,2 L11.45,2 C11.27,2 11.11,2.11 11.02,2.26 C10.42,3.3 9.29,4 8.01,4 C6.73,4 5.6,3.3 5,2.26 C4.91,2.1 4.75,2 4.57,2 L3.28,2 C3.11,2 2.96,2.08 2.87,2.22 L1.25,4.63 C1.12,4.83 1.14,5.1 1.31,5.26 L3.02,6.95 L3.02,12.99 C3.02,13.54 3.47,13.99 4.02,13.99 L12.02,13.99 C12.57,13.99 13.02,13.54 13.02,12.99 L13.02,6.92 L14.72,5.31 C14.9,5.14 14.93,4.87 14.79,4.67 L13.02,1.99 L13.02,1.99 L13,2 Z" id="形状" fill-opacity="0.85" fill="#000000"></path>
            </g>
        </g>
    </g>
</svg>