<?xml version="1.0" encoding="UTF-8"?>
<svg width="106px" height="48px" viewBox="0 0 106 48" version="1.1" xmlns="http://www.w3.org/2000/svg" xmlns:xlink="http://www.w3.org/1999/xlink">
    <title>编组 21</title>
    <defs>
        <filter x="-0.6%" y="-16.7%" width="101.2%" height="133.3%" filterUnits="objectBoundingBox" id="filter-1">
            <feOffset dx="0" dy="2" in="SourceAlpha" result="shadowOffsetOuter1"></feOffset>
            <feGaussianBlur stdDeviation="2" in="shadowOffsetOuter1" result="shadowBlurOuter1"></feGaussianBlur>
            <feColorMatrix values="0 0 0 0 0   0 0 0 0 0   0 0 0 0 0  0 0 0 0.04 0" type="matrix" in="shadowBlurOuter1" result="shadowMatrixOuter1"></feColorMatrix>
            <feMerge>
                <feMergeNode in="shadowMatrixOuter1"></feMergeNode>
                <feMergeNode in="SourceGraphic"></feMergeNode>
            </feMerge>
        </filter>
    </defs>
    <g id="页面-1" stroke="none" stroke-width="1" fill="none" fill-rule="evenodd">
        <g id="编组-40备份" transform="translate(-40.000000, -12.000000)" filter="url(#filter-1)">
            <g id="编组-8" transform="translate(40.000000, 12.000000)">
                <rect id="矩形" x="0" y="0" width="106" height="48"></rect>
                <path d="M52,18.2576464 L52,17.2312079 C52.1195342,17.3348885 52.2627994,17.4282011 52.4297956,17.5111457 C52.5967919,17.5940902 52.7725775,17.6640747 52.9571523,17.721099 C53.1417271,17.7781234 53.3271808,17.8221877 53.5135135,17.8532919 C53.6998462,17.8843961 53.872116,17.8999482 54.030323,17.8999482 C54.5752582,17.8999482 54.9822017,17.8005875 55.2511536,17.6018663 C55.5201055,17.403145 55.6545814,17.1171591 55.6545814,16.7439088 C55.6545814,16.5434595 55.6097561,16.3689304 55.5201055,16.2203214 C55.4304548,16.0717125 55.306526,15.9360636 55.1483191,15.8133748 C54.9901121,15.690686 54.8029005,15.5731813 54.5866842,15.4608605 L53.8879367,15.1057543 C53.6242584,14.9744254 53.3781586,14.8413686 53.1496374,14.7065837 C52.9211162,14.5717989 52.7224786,14.4231899 52.5537245,14.2607569 C52.3849703,14.0983238 52.2522523,13.9142907 52.1555702,13.7086573 C52.0588882,13.503024 52.0105471,13.2619665 52.0105471,12.9854847 C52.0105471,12.6467945 52.0861349,12.3521687 52.2373105,12.1016071 C52.388486,11.8510454 52.5871237,11.6445481 52.8332235,11.4821151 C53.0793232,11.319682 53.3597012,11.1987213 53.6743573,11.1192328 C53.9890134,11.0397443 54.309822,11 54.6367831,11 C55.3821138,11 55.9252911,11.0881286 56.2663151,11.2643857 L56.2663151,12.244168 C55.8198198,11.940038 55.246759,11.787973 54.5471325,11.787973 C54.3537684,11.787973 54.1604043,11.8078452 53.9670402,11.8475894 C53.7736761,11.8873337 53.6014063,11.9521341 53.4502307,12.0419907 C53.2990552,12.1318472 53.1760053,12.247624 53.0810811,12.3893209 C52.9861569,12.5310178 52.9386948,12.7038189 52.9386948,12.9077242 C52.9386948,13.0978054 52.9747308,13.2619665 53.0468029,13.4002074 C53.118875,13.5384482 53.2252252,13.6645931 53.3658537,13.7786418 C53.5064821,13.8926905 53.677873,14.0032832 53.8800264,14.1104199 L54.2063283,14.278901 L54.5787739,14.4629342 C54.8494836,14.594263 55.1061305,14.7325039 55.3487146,14.8776568 C55.5912986,15.0228097 55.8039991,15.1835148 55.9868161,15.3597719 C56.169633,15.536029 56.3146561,15.7312943 56.4218853,15.9455677 C56.5291145,16.159841 56.5827291,16.4052186 56.5827291,16.6817004 C56.5827291,17.0480387 56.5097781,17.3582167 56.3638761,17.6122343 C56.2179741,17.8662519 56.0210943,18.0727493 55.7732367,18.2317263 C55.525379,18.3907033 55.2397275,18.505616 54.9162821,18.5764645 C54.5928367,18.6473129 54.2518128,18.6827372 53.8932103,18.6827372 C53.7736761,18.6827372 53.6260163,18.6732331 53.4502307,18.654225 C53.2744452,18.6352169 53.0951439,18.6075687 52.912327,18.5712805 C52.72951,18.5349922 52.5563612,18.4900639 52.3928807,18.4364956 C52.2294001,18.3829273 52.0984399,18.3233109 52,18.2576464 Z M62.3414634,18.5583204 L61.4765985,18.5583204 L61.4765985,17.718507 L61.4555043,17.718507 C61.0969018,18.3613271 60.5414195,18.6827372 59.7890574,18.6827372 C58.5023072,18.6827372 57.8589321,17.9293243 57.8589321,16.4224987 L57.8589321,13.2498704 L58.7185234,13.2498704 L58.7185234,16.2877138 C58.7185234,17.407465 59.1544715,17.9673406 60.0263678,17.9673406 C60.4482531,17.9673406 60.7954296,17.8144116 61.0678972,17.5085537 C61.3403648,17.2026957 61.4765985,16.8026611 61.4765985,16.30845 L61.4765985,13.2498704 L62.3414634,13.2498704 L62.3414634,18.5583204 Z M64.972973,17.7910835 L64.9518787,17.7910835 L64.9518787,21 L64.0870138,21 L64.0870138,13.2498704 L64.9518787,13.2498704 L64.9518787,14.1829964 L64.972973,14.1829964 C65.398374,13.4779679 66.0206548,13.1254536 66.8398154,13.1254536 C67.5359262,13.1254536 68.0791035,13.3630551 68.4693474,13.8382582 C68.8595913,14.3134612 69.0547132,14.9502333 69.0547132,15.7485744 C69.0547132,16.6367721 68.8349813,17.3478486 68.3955175,17.881804 C67.9560536,18.4157595 67.3548671,18.6827372 66.5919578,18.6827372 C65.8923314,18.6827372 65.3526697,18.3855193 64.972973,17.7910835 Z M64.9518787,15.6500778 L64.9518787,16.3913945 C64.9518787,16.8303093 65.0969018,17.2026957 65.3869479,17.5085537 C65.6769941,17.8144116 66.0452648,17.9673406 66.4917601,17.9673406 C67.015601,17.9673406 67.4260602,17.7703473 67.7231378,17.3763608 C68.0202153,16.9823743 68.1687541,16.4345948 68.1687541,15.7330223 C68.1687541,15.1420425 68.0298835,14.6789355 67.7521424,14.3437014 C67.4744012,14.0084673 67.0982202,13.8408502 66.6235992,13.8408502 C66.1208526,13.8408502 65.7165458,14.0127873 65.410679,14.3566615 C65.1048121,14.7005357 64.9518787,15.1316744 64.9518787,15.6500778 Z M74.7765326,16.1166407 L70.9637442,16.1166407 C70.9778071,16.7076205 71.1395298,17.1638154 71.4489123,17.4852255 C71.7582949,17.8066356 72.1836959,17.9673406 72.7251154,17.9673406 C73.3333333,17.9673406 73.8923314,17.7703473 74.4021094,17.3763608 L74.4021094,18.1747019 C73.9274885,18.5133921 73.2999341,18.6827372 72.5194463,18.6827372 C71.756537,18.6827372 71.1571083,18.4416796 70.7211602,17.9595645 C70.285212,17.4774495 70.067238,16.7992051 70.067238,15.9248315 C70.067238,15.0988422 70.3054274,14.4257819 70.7818062,13.9056506 C71.258185,13.3855193 71.8497034,13.1254536 72.5563612,13.1254536 C73.2630191,13.1254536 73.8097122,13.350095 74.1964403,13.7993779 C74.5831685,14.2486608 74.7765326,14.8724728 74.7765326,15.6708139 L74.7765326,16.1166407 Z M73.8905735,15.3960601 C73.8870578,14.905305 73.7666447,14.5234145 73.5293342,14.2503888 C73.2920237,13.9773631 72.9624258,13.8408502 72.5405405,13.8408502 C72.1327181,13.8408502 71.7864206,13.9842751 71.501648,14.2711249 C71.2168754,14.5579748 71.0410899,14.9329532 70.9742914,15.3960601 L73.8905735,15.3960601 Z M78.9004614,14.1104199 C78.7492859,13.9963712 78.5313118,13.9393468 78.2465392,13.9393468 C77.8773896,13.9393468 77.568886,14.1104199 77.3210283,14.4525661 C77.0731707,14.7947123 76.9492419,15.2612753 76.9492419,15.8522551 L76.9492419,18.5583204 L76.0843771,18.5583204 L76.0843771,13.2498704 L76.9492419,13.2498704 L76.9492419,14.3437014 L76.9703362,14.3437014 C77.0933861,13.970451 77.2814766,13.6792811 77.5346078,13.4701918 C77.787739,13.2611025 78.0707537,13.1565578 78.3836519,13.1565578 C78.6086574,13.1565578 78.7809273,13.18075 78.9004614,13.2291343 L78.9004614,14.1104199 Z M87.6651285,18.5583204 L86.784443,18.5583204 L86.784443,13.5712805 C86.784443,13.1772939 86.809053,12.6951788 86.8582729,12.1249352 L86.8371786,12.1249352 L86.7557313,12.4284891 C86.7033863,12.6097383 86.6549476,12.7487472 86.6104153,12.8455158 L84.0263678,18.5583204 L83.5939354,18.5583204 L81.0151615,12.8869881 C80.9413316,12.721099 80.8657438,12.4670814 80.7883982,12.1249352 L80.7673039,12.1249352 C80.7954296,12.4221531 80.8094924,12.9077242 80.8094924,13.5816485 L80.8094924,18.5583204 L79.9551747,18.5583204 L79.9551747,11.1244168 L81.1259064,11.1244168 L83.4462755,16.30845 C83.6255768,16.7058925 83.7415953,17.0031104 83.7943309,17.2001037 L83.8259723,17.2001037 L83.9671867,16.8268533 C84.0546888,16.6010598 84.1289094,16.4213467 84.1898484,16.2877138 L86.5576796,11.1244168 L87.6651285,11.1244168 L87.6651285,18.5583204 Z M93.4027686,18.5583204 L92.5379038,18.5583204 L92.5379038,17.7288751 L92.5168095,17.7288751 C92.1406284,18.3647831 91.586904,18.6827372 90.8556361,18.6827372 C90.3177324,18.6827372 89.896726,18.5427683 89.592617,18.2628305 C89.288508,17.9828927 89.1364535,17.6113703 89.1364535,17.1482633 C89.1364535,16.156385 89.7306087,15.5792293 90.9189189,15.4167963 L92.5379038,15.1938828 C92.5379038,14.2918611 92.1669963,13.8408502 91.4251813,13.8408502 C90.7747748,13.8408502 90.1876511,14.0585796 89.6638102,14.4940384 L89.6638102,13.6231208 C90.1946825,13.2913427 90.8064162,13.1254536 91.4990112,13.1254536 C92.7681828,13.1254536 93.4027686,13.7855538 93.4027686,15.1057543 L93.4027686,18.5583204 Z M92.5379038,15.8729912 L91.2353329,16.0492483 C90.8345419,16.1045447 90.5321907,16.2021773 90.3282795,16.3421462 C90.1243683,16.4821151 90.0224127,16.7300847 90.0224127,17.086055 C90.0224127,17.3452566 90.1164579,17.556938 90.3045485,17.721099 C90.492639,17.8852601 90.7431334,17.9673406 91.0560316,17.9673406 C91.4849484,17.9673406 91.8391562,17.8195956 92.1186552,17.5241058 C92.3981543,17.2286159 92.5379038,16.8545015 92.5379038,16.4017626 L92.5379038,15.8729912 Z M95.9182597,17.7910835 L95.8971655,17.7910835 L95.8971655,21 L95.0323006,21 L95.0323006,13.2498704 L95.8971655,13.2498704 L95.8971655,14.1829964 L95.9182597,14.1829964 C96.3436607,13.4779679 96.9659416,13.1254536 97.7851022,13.1254536 C98.4812129,13.1254536 99.0243902,13.3630551 99.4146341,13.8382582 C99.804878,14.3134612 100,14.9502333 100,15.7485744 C100,16.6367721 99.7802681,17.3478486 99.3408042,17.881804 C98.9013404,18.4157595 98.3001538,18.6827372 97.5372446,18.6827372 C96.8376181,18.6827372 96.2979565,18.3855193 95.9182597,17.7910835 Z M95.8971655,15.6500778 L95.8971655,16.3913945 C95.8971655,16.8303093 96.0421885,17.2026957 96.3322347,17.5085537 C96.6222808,17.8144116 96.9905515,17.9673406 97.4370468,17.9673406 C97.9608877,17.9673406 98.371347,17.7703473 98.6684245,17.3763608 C98.9655021,16.9823743 99.1140409,16.4345948 99.1140409,15.7330223 C99.1140409,15.1420425 98.9751703,14.6789355 98.6974291,14.3437014 C98.419688,14.0084673 98.0435069,13.8408502 97.568886,13.8408502 C97.0661393,13.8408502 96.6618326,14.0127873 96.3559657,14.3566615 C96.0500989,14.7005357 95.8971655,15.1316744 95.8971655,15.6500778 Z" id="形状" fill-opacity="0.65" fill="#FFFFFF" fill-rule="nonzero"></path>
                <path d="M53.3025695,25.5181818 C52.9438909,25.5181818 52.6371264,25.4060606 52.3822758,25.1818182 C52.1274253,24.9575758 52,24.6727273 52,24.3272727 C52,23.9818182 52.1274253,23.6939394 52.3822758,23.4636364 C52.6371264,23.2333333 52.9438909,23.1181818 53.3025695,23.1181818 C53.6738332,23.1181818 53.9884636,23.2333333 54.2464604,23.4636364 C54.5044573,23.6939394 54.6334557,23.9818182 54.6334557,24.3272727 C54.6334557,24.6545455 54.5044573,24.9348485 54.2464604,25.1681818 C53.9884636,25.4015152 53.6738332,25.5181818 53.3025695,25.5181818 Z M54.388044,36.7818182 L52.1982171,36.7818182 L52.1982171,27.4727273 L54.388044,27.4727273 L54.388044,36.7818182 Z M66.9323545,36.2363636 C65.9129523,36.7454545 64.6449921,37 63.128474,37 C61.1651809,37 59.5920294,36.4030303 58.4090194,35.2090909 C57.2260094,34.0151515 56.6345045,32.4484848 56.6345045,30.5090909 C56.6345045,28.4242424 57.2999476,26.7393939 58.6308338,25.4545455 C59.96172,24.169697 61.643419,23.5272727 63.6759308,23.5272727 C64.9847929,23.5272727 66.0702674,23.7060606 66.9323545,24.0636364 L66.9323545,26.2090909 C66.0199266,25.6878788 65.0131096,25.4272727 63.9119035,25.4272727 C62.4457263,25.4272727 61.2579969,25.8787879 60.3487153,26.7818182 C59.4394337,27.6848485 58.9847929,28.8909091 58.9847929,30.4 C58.9847929,31.8363636 59.4095438,32.980303 60.2590456,33.8318182 C61.1085475,34.6833333 62.2254851,35.1090909 63.6098584,35.1090909 C64.8872575,35.1090909 65.9947562,34.8181818 66.9323545,34.2363636 L66.9323545,36.2363636 Z M71.453592,36.7818182 L69.2543262,36.7818182 L69.2543262,23 L71.453592,23 L71.453592,36.7818182 Z M75.408495,25.5181818 C75.0498165,25.5181818 74.7430519,25.4060606 74.4882014,25.1818182 C74.2333508,24.9575758 74.1059255,24.6727273 74.1059255,24.3272727 C74.1059255,23.9818182 74.2333508,23.6939394 74.4882014,23.4636364 C74.7430519,23.2333333 75.0498165,23.1181818 75.408495,23.1181818 C75.7797588,23.1181818 76.0943891,23.2333333 76.3523859,23.4636364 C76.6103828,23.6939394 76.7393812,23.9818182 76.7393812,24.3272727 C76.7393812,24.6545455 76.6103828,24.9348485 76.3523859,25.1681818 C76.0943891,25.4015152 75.7797588,25.5181818 75.408495,25.5181818 Z M76.4939696,36.7818182 L74.3041426,36.7818182 L74.3041426,27.4727273 L76.4939696,27.4727273 L76.4939696,36.7818182 Z M87.5374934,32.7 L80.9491348,32.7 C80.9743052,33.5606061 81.2496067,34.2242424 81.7750393,34.6909091 C82.3004719,35.1575758 83.0225485,35.3909091 83.941269,35.3909091 C84.9732564,35.3909091 85.9202937,35.0939394 86.7823807,34.5 L86.7823807,36.2 C85.9014158,36.7333333 84.7372837,37 83.2899843,37 C81.8678553,37 80.7524908,36.5772727 79.9438909,35.7318182 C79.135291,34.8863636 78.7309911,33.6969697 78.7309911,32.1636364 C78.7309911,30.7151515 79.176193,29.5348485 80.0665967,28.6227273 C80.9570005,27.7106061 82.0629261,27.2545455 83.3843734,27.2545455 C84.7058207,27.2545455 85.7283692,27.6636364 86.4520189,28.4818182 C87.1756686,29.3 87.5374934,30.4363636 87.5374934,31.8909091 L87.5374934,32.7 Z M85.4231778,31.2090909 C85.4168852,30.4515152 85.2312533,29.8621212 84.8662821,29.4409091 C84.501311,29.019697 83.9979025,28.8090909 83.3560566,28.8090909 C82.726796,28.8090909 82.1934976,29.030303 81.7561615,29.4727273 C81.3188254,29.9151515 81.0498165,30.4939394 80.9491348,31.2090909 L85.4231778,31.2090909 Z M98.2317777,36.7818182 L96.0419507,36.7818182 L96.0419507,31.5363636 C96.0419507,29.7969697 95.4032512,28.9272727 94.1258521,28.9272727 C93.4588359,28.9272727 92.9082328,29.1681818 92.474043,29.65 C92.0398532,30.1318182 91.8227583,30.7393939 91.8227583,31.4727273 L91.8227583,36.7818182 L89.6234924,36.7818182 L89.6234924,27.4727273 L91.8227583,27.4727273 L91.8227583,29.0181818 L91.8605139,29.0181818 C92.5841636,27.8424242 93.6287362,27.2545455 94.9942318,27.2545455 C96.045097,27.2545455 96.8474043,27.5833333 97.4011536,28.2409091 C97.954903,28.8984848 98.2317777,29.8484848 98.2317777,31.0909091 L98.2317777,36.7818182 Z M106,36.6818182 C105.572103,36.8878788 105.008915,36.9909091 104.310435,36.9909091 C102.435239,36.9909091 101.49764,36.1242424 101.49764,34.3909091 L101.49764,29.1272727 L99.8835868,29.1272727 L99.8835868,27.4727273 L101.49764,27.4727273 L101.49764,25.3181818 L103.687467,24.7181818 L103.687467,27.4727273 L106,27.4727273 L106,29.1272727 L103.687467,29.1272727 L103.687467,33.7818182 C103.687467,34.3333333 103.791295,34.7272727 103.998951,34.9636364 C104.206607,35.2 104.552701,35.3181818 105.037231,35.3181818 C105.408495,35.3181818 105.729418,35.2151515 106,35.0090909 L106,36.6818182 Z" id="形状" fill-opacity="0.85" fill="#FFFFFF" fill-rule="nonzero"></path>
                <path d="M20.1618509,9.37150255 L34.5439245,34.299876 C35.2245545,35.4796084 34.8204597,36.9877112 33.6411507,37.6690746 C32.4627893,38.3498905 30.9556284,37.9465502 30.2748125,36.7681889 L15.8927388,11.8398155 C15.2121089,10.660083 15.6162037,9.1519802 16.7955127,8.4706168 C17.973874,7.7898009 19.481035,8.19314119 20.1618509,9.37150255 Z M28.6210143,9.23181113 L43.0030879,34.1601845 C43.6837179,35.339917 43.279623,36.8480198 42.100314,37.5293832 C40.9219527,38.2101991 39.4147917,37.8068588 38.7339758,36.6284975 L24.3519022,11.700124 C23.6712722,10.5203916 24.0753671,9.01228877 25.254676,8.33092538 C26.4330374,7.65010948 27.9401984,8.05344977 28.6210143,9.23181113 Z M19.7146373,23.3982654 L25.8793266,34.0834886 C26.5599565,35.2632211 26.1558617,36.7713239 24.9765527,37.4526873 C23.7981913,38.1335032 22.2910304,37.7301629 21.6102145,36.5518015 L15.4455252,25.8665783 C14.7648953,24.6868459 15.1689901,23.178743 16.3482991,22.4973796 C17.5266605,21.8165637 19.0338214,22.219904 19.7146373,23.3982654 Z M9.59935751,21.1714011 L16.9966544,33.9930969 C17.6772844,35.1728293 17.2731895,36.6809322 16.0938806,37.3622956 C14.9155192,38.0431115 13.4083582,37.6397712 12.7275423,36.4614098 L5.33024543,23.639714 C4.64961546,22.4599816 5.05371031,20.9518788 6.23301929,20.2705154 C7.41138065,19.5896995 8.91854161,19.9930398 9.59935751,21.1714011 Z" id="形状结合" fill="#E04C40"></path>
            </g>
        </g>
    </g>
</svg>