<?xml version="1.0" encoding="UTF-8"?>
<svg width="24px" height="24px" viewBox="0 0 24 24" version="1.1" xmlns="http://www.w3.org/2000/svg" xmlns:xlink="http://www.w3.org/1999/xlink">
    <title>小分辨率-菜单收起</title>
    <defs>
        <rect id="path-1" x="0" y="0" width="24" height="24"></rect>
    </defs>
    <g id="小分辨率-菜单收起" stroke="none" stroke-width="1" fill="none" fill-rule="evenodd">
        <g id="编组-22">
            <mask id="mask-2" fill="white">
                <use xlink:href="#path-1"></use>
            </mask>
            <g id="矩形"></g>
            <g id="menu" mask="url(#mask-2)" fill="#000000" fill-opacity="0.85" fill-rule="nonzero">
                <g transform="translate(2.812500, 3.297323)" id="形状">
                    <path d="M0.18375,7.56178977 C0.0816639937,7.56390152 0,7.65009449 0,7.75568182 L0,9.30681818 C0,9.41240551 0.0816639937,9.49859848 0.18375,9.50071023 L18.19125,9.50071023 C18.293336,9.49859848 18.375,9.41240551 18.375,9.30681818 L18.375,7.75568182 C18.375,7.65009449 18.293336,7.56390152 18.19125,7.56178977 L0.18375,7.56178977 Z M0.18375,15.1235795 C0.0816639937,15.1256913 0,15.2118843 0,15.3174716 L0,16.868608 C0,16.9741953 0.0816639937,17.0603883 0.18375,17.0625 L18.19125,17.0625 C18.293336,17.0603883 18.375,16.9741953 18.375,16.868608 L18.375,15.3174716 C18.375,15.2118843 18.293336,15.1256913 18.19125,15.1235795 L0.18375,15.1235795 Z M0.18375,0 C0.0816639937,0.0021117445 0,0.088304717 0,0.193892045 L0,1.74502841 C0,1.85061574 0.0816639937,1.93680871 0.18375,1.93892045 L18.19125,1.93892045 C18.293336,1.93680871 18.375,1.85061574 18.375,1.74502841 L18.375,0.193892045 C18.375,0.088304717 18.293336,0.0021117445 18.19125,0 L0.18375,0 Z"></path>
                </g>
            </g>
        </g>
    </g>
</svg>