<?xml version="1.0" encoding="UTF-8"?>
<svg width="14px" height="14px" viewBox="0 0 14 14" version="1.1" xmlns="http://www.w3.org/2000/svg" xmlns:xlink="http://www.w3.org/1999/xlink">
    <title>皮肤-暗色</title>
    <defs>
        <path d="M0,7 L0,0 L14,0 L14,14 L0,14 L0,7 Z" id="path-1"></path>
    </defs>
    <g id="皮肤-暗色" stroke="none" stroke-width="1" fill="none" fill-rule="evenodd">
        <g id="编组-8">
            <mask id="mask-2" fill="white">
                <use xlink:href="#path-1"></use>
            </mask>
            <g id="Rectangle-77-Copy-6"></g>
            <path d="M7.7076968,2.03913569 C8.74160698,2.03913569 9.71254957,2.31415423 10.5468769,2.79251876 C10.5499703,2.79429237 10.5531376,2.79611702 10.5563787,2.79799271 L10.5564145,2.7979308 C10.5949256,2.82021752 10.6080781,2.86950389 10.5857914,2.90801499 C10.5713891,2.93290194 10.5448148,2.9482266 10.5160609,2.9482266 C10.5160609,2.9482266 10.5160609,2.9482266 10.5160609,2.9482266 C7.94152976,2.9482266 5.83540444,4.99458766 5.83540444,7.49372936 C5.83540444,9.99383545 7.94152976,12.0391357 10.5160609,12.0391357 C10.5269663,12.0391357 10.5387309,12.039054 10.5513549,12.0388905 L10.5513557,12.0389563 C10.5906367,12.0384477 10.6228925,12.0698789 10.6234011,12.1091599 C10.6237327,12.1347715 10.6102687,12.1585836 10.5881512,12.1715019 C10.5881512,12.1715019 10.5881512,12.1715019 10.5881512,12.1715019 C9.74460552,12.6641957 8.75868355,12.9482266 7.7076968,12.9482266 C4.61825948,12.9482266 2.09090909,10.4938663 2.09090909,7.493739 C2.09090909,4.49476896 4.61825948,2.03913569 7.7076968,2.03913569 Z" id="路径" fill-opacity="0.25" fill="#000000" fill-rule="nonzero" mask="url(#mask-2)" transform="translate(6.454545, 7.493681) rotate(-45.000000) translate(-6.454545, -7.493681) "></path>
        </g>
    </g>
</svg>