<?xml version="1.0" standalone="no"?><!DOCTYPE svg PUBLIC "-//W3C//DTD SVG 1.1//EN" "http://www.w3.org/Graphics/SVG/1.1/DTD/svg11.dtd"><svg t="1622541008426" class="icon" viewBox="0 0 1152 1024" version="1.1" xmlns="http://www.w3.org/2000/svg" p-id="2383" xmlns:xlink="http://www.w3.org/1999/xlink" width="36" height="32"><defs><style type="text/css"></style></defs><path d="M960 384H731.42L521.22 16.12A32.028 32.028 0 0 0 493.42 0h-131c-21.26 0-36.6 20.34-30.76 40.78L429.72 384H224l-86.4-115.2c-6.04-8.06-15.54-12.8-25.6-12.8H32.02C11.2 256-4.08 275.56 0.98 295.76L64 512 0.98 728.24C-4.08 748.44 11.2 768 32.02 768H112c10.08 0 19.56-4.74 25.6-12.8L224 640h205.72l-98.06 343.2c-5.84 20.44 9.5 40.8 30.76 40.8h131c11.48 0 22.08-6.16 27.78-16.12L731.42 640H960c70.7 0 192-57.3 192-128s-121.3-128-192-128z" p-id="2384" fill="#f4ea2a"></path></svg>