<?xml version="1.0" encoding="UTF-8"?>
<svg width="38px" height="38px" viewBox="0 0 38 38" version="1.1" xmlns="http://www.w3.org/2000/svg" xmlns:xlink="http://www.w3.org/1999/xlink">
    <!-- Generator: Sketch 58 (84663) - https://sketch.com -->
    <title>eat</title>
    <desc>Created with Sketch.</desc>
    <g id="eat" stroke="none" stroke-width="1" fill="none" fill-rule="evenodd">
        <g id="Group-2-Copy">
            <g id="Group-2-Copy-15">
                <circle id="Oval" fill="#FDA42D" cx="19" cy="19" r="19"></circle>
                <circle id="Oval-Copy" fill="#FFFDF5" cx="19" cy="19" r="16"></circle>
            </g>
            <path d="M23.9398496,10 L23.9398496,29 L21.6842105,29 L21.6842105,10 L23.9398496,10 Z M28,10 L28,29 L25.7443609,29 L25.7443609,10 L28,10 Z M14.7894737,10 C17.9869117,10 20.5789474,12.5992358 20.5789474,15.8055556 C20.5789474,18.0612639 19.2960462,20.0165024 17.4219889,20.9776043 L17.4210526,29 L15.3157895,29 L15.3156562,21.587456 C15.142351,21.6031127 14.9668438,21.6111111 14.7894737,21.6111111 C14.6121035,21.6111111 14.4365963,21.6031127 14.2632912,21.587456 L14.2631579,29 L12.1578947,29 L12.1569585,20.9776043 C10.2829012,20.0165024 9,18.0612639 9,15.8055556 C9,12.5992358 11.5920357,10 14.7894737,10 Z M14.7894737,12.1111111 C12.7547404,12.1111111 11.1052632,13.7651702 11.1052632,15.8055556 C11.1052632,17.8459409 12.7547404,19.5 14.7894737,19.5 C16.824207,19.5 18.4736842,17.8459409 18.4736842,15.8055556 C18.4736842,13.7651702 16.824207,12.1111111 14.7894737,12.1111111 Z" id="Combined-Shape" fill="#FDA42D"></path>
        </g>
    </g>
</svg>