<?xml version="1.0" encoding="UTF-8"?>
<svg width="38px" height="38px" viewBox="0 0 38 38" version="1.1" xmlns="http://www.w3.org/2000/svg" xmlns:xlink="http://www.w3.org/1999/xlink">
    <!-- Generator: Sketch 58 (84663) - https://sketch.com -->
    <title>car</title>
    <desc>Created with Sketch.</desc>
    <g id="car" stroke="none" stroke-width="1" fill="none" fill-rule="evenodd">
        <g id="Group-2-Copy-13">
            <circle id="Oval" fill="#5B8FF9" cx="19" cy="19" r="19"></circle>
            <circle id="Oval-Copy" fill="#F6FAFF" cx="19" cy="19" r="16"></circle>
            <g id="Group-3-Copy" transform="translate(7.000000, 9.000000)" fill="#5B8FF9">
                <path d="M1.90205776,15.6521739 L1.90205776,14.9828031 L10.9550851,14.9828031 L10.9550851,15.6521739 C10.9550851,18.5379713 9.00388723,20.6693708 6.42857143,20.6693708 C3.85325563,20.6693708 1.90205776,18.5379713 1.90205776,15.6521739 Z M3.31871696,16.5196679 C3.63392663,18.2147254 4.8725023,19.3306292 6.42857143,19.3306292 C8.04448937,19.3306292 9.31802162,18.1272359 9.570664,16.3215447 L3.28647886,16.3215447 L3.31871696,16.5196679 Z" id="Combined-Shape" fill-rule="nonzero"></path>
                <path d="M13.0449149,15.6521739 L13.0449149,14.9828031 L22.0979422,14.9828031 L22.0979422,15.6521739 C22.0979422,18.5379713 20.1467444,20.6693708 17.5714286,20.6693708 C14.9961128,20.6693708 13.0449149,18.5379713 13.0449149,15.6521739 Z M14.4615741,16.5196679 C14.7767838,18.2147254 16.0153594,19.3306292 17.5714286,19.3306292 C19.1873465,19.3306292 20.4608788,18.1272359 20.7135211,16.3215447 L14.429336,16.3215447 L14.4615741,16.5196679 Z" id="Combined-Shape-Copy-2" fill-rule="nonzero"></path>
                <g id="Group-4" transform="translate(0.000000, 5.252174)">
                    <path d="M24,8.66078261 L24,11.2695652 L0,11.2695652 L0,8.66086957 L24,8.66078261 Z M24,0.834782609 L24,3.44278261 L0,3.44347826 L0,0.834782609 L24,0.834782609 Z M0,4.31304348 L24,4.31278261 L24,7.79078261 L0,7.79130435 L0,4.31304348 Z" id="Combined-Shape"></path>
                </g>
                <path d="M4.56680162,0 L19.037594,0 L20.967033,8.16231884 L2.63736264,8.16231884 L4.56680162,0 Z M5.74366735,1.48749068 L4.51746542,6.67482816 L19.0869302,6.67482816 L17.8607283,1.48749068 L5.74366735,1.48749068 Z" id="Rectangle" fill-rule="nonzero"></path>
            </g>
        </g>
    </g>
</svg>