<?xml version="1.0" standalone="no"?><!DOCTYPE svg PUBLIC "-//W3C//DTD SVG 1.1//EN" "http://www.w3.org/Graphics/SVG/1.1/DTD/svg11.dtd"><svg t="1641892989607" class="icon" viewBox="0 0 1024 1024" version="1.1" xmlns="http://www.w3.org/2000/svg" p-id="7165" xmlns:xlink="http://www.w3.org/1999/xlink" width="32" height="32"><defs><style type="text/css"></style></defs><path d="M618.771648 341.718335l25.103501 0c21.260294 0 31.931326-9.07651 31.931326-27.433956 0-20.810557-19.778206-31.266941-59.344839-31.266941l-41.375802 0-62.605432-83.323997 29.570207 0c19.778206 0 29.672419-9.178723 29.672419-27.352186 0-20.974097-13.757863-31.348712-41.365581-31.348712l-60.397632 0C400.219918 47.028178 356.27857 0 337.941567 0c-8.504117 0-17.723726 3.465019-27.62816 10.405278-9.914656 6.86871-14.800435 14.268928-14.800435 22.057555 0 7.849955 10.49727 28.077897 31.532695 60.714492 20.99454 32.59571 51.668646 93.586177 91.725902 182.848747 40.108362 89.272791 60.131879 143.292335 60.131879 161.895092 0 11.938473-17.887266 18.520987-53.764012 19.65555-117.718655 0.715491-202.146552 6.275875-253.263248 16.681153-5.969236-5.182197-20.606131-24.122256-43.88002-56.717966-23.335217-32.59571-39.372428-52.057056-48.101414-58.138726-8.810756-6.132777-24.30624-9.240051-46.680654-9.240051-11.938473 0-19.982632 1.706956-24.07115 5.059541 0 14.463132 17.641955 66.898376 53.079185 157.111526C26.795125 594.378527 9.15317 646.711558 9.15317 669.474382c4.088518 3.332142 12.132677 5.028877 24.07115 5.028877 22.364194 0 37.767685-2.964176 46.363794-8.984518 8.626773-5.928351 24.663985-25.297705 48.121857-58.138726 23.478315-32.789914 38.207201-51.791302 44.176437-57.004162 51.106475 9.301378 110.165118 14.28937 177.574559 15.025304 67.215236 0.86881 105.739297 2.749528 115.183774 5.938572 9.536468 3.199265 14.279149 8.28947 14.279149 15.331943 0 18.316561-20.023517 72.131679-60.131879 161.619117-40.057255 89.528323-70.731362 150.580118-91.725902 183.145164-21.045646 32.697923-31.532695 52.895202-31.532695 60.765599 0 7.788627 4.885779 15.055968 14.800435 21.750916 9.894214 6.725612 19.124043 10.108861 27.62816 10.108861 18.337003 0 62.278351-46.833974 132.028468-140.399709l60.397632 0c27.607718 0 41.365581-10.435942 41.365581-31.318048 0-18.337003-9.904435-27.413513-29.672419-27.413513l-29.570207 0 62.605432-83.272891 41.375802 0c39.566633 0 59.344839-10.476827 59.344839-31.287384 0-18.367667-10.671032-27.485062-31.931326-27.485062l-25.103501 0 99.514528-117.99463 129.800226 0c110.635297 0 166.004053-18.459659 166.004053-55.358534 0-14.534682-22.272202-26.503818-66.888155-35.815418-44.483076-9.219608-77.538744-13.921404-99.115898-13.921404L718.296398 459.794736 618.771648 341.718335z" p-id="7166" fill="#1296db"></path></svg>